<svg width="32" height="32" viewBox="0 0 32 32" fill="none" xmlns="http://www.w3.org/2000/svg">
  <defs>
    <linearGradient id="grad" x1="0%" y1="0%" x2="100%" y2="100%">
      <stop offset="0%" style="stop-color:#8B5CF6"/>
      <stop offset="100%" style="stop-color:#3B82F6"/>
    </linearGradient>
  </defs>
  <circle cx="16" cy="16" r="15" fill="url(#grad)" stroke="#ffffff" stroke-width="1"/>
  <path d="M10 10 C10 8, 12 6, 16 6 C20 6, 22 8, 22 10 C22 12, 20 14, 18 14 C16 14, 14 12, 14 10" 
        stroke="#ffffff" 
        stroke-width="2.5" 
        stroke-linecap="round" 
        fill="none"/>
  <path d="M22 22 C22 24, 20 26, 16 26 C12 26, 10 24, 10 22 C10 20, 12 18, 14 18 C16 18, 18 20, 18 22" 
        stroke="#ffffff" 
        stroke-width="2.5" 
        stroke-linecap="round" 
        fill="none"/>
  <line x1="16" y1="14" x2="16" y2="18" stroke="#ffffff" stroke-width="2" stroke-linecap="round"/>
</svg>
